#!OML:ASF E:/inclinewalkrobotboard/Project1/Captureday1/Session1/subject1.ASF
:FULLY-SPECIFIED
:DEGREES
138
root 0 0 0 -1.4376572861699881 0.6627624318805037 1.4996318073242016
lowerback 10.335591167514709 -1.5134484584001067 -3.6382097207815445
upperback 0.3606319090654527 -2.311437838789945 1.8349644577744846
thorax -5.248197792012278 -1.0464283622624762 4.276640775243574
lowerneck -18.09793179018488 -2.4529647165704542 -2.19488278692265
upperneck 20.1000531127808 -2.831950666106062 -0.2702710607240866
head 9.35615186350027 -1.4723313907588347 -0.11688910351015785
rclavicle -1.1282079179099119E-15 3.72978876946833E-16
rhumerus -35.5945635357445 -24.055660267575057 -77.43552690506725
rradius 18.925867304831876
rwrist 7.032349432663195
rhand -18.013033974896572 25.150283071591282
rfingers 7.125020000000024
rthumb 8.25426878663804 -4.672193569801671
lclavicle -2.0170341079396803E-15 -3.1083470733268537E-16
lhumerus -26.854968214801723 -3.257985032740565 80.5809179441467
lradius 31.692962945731573
lwrist 7.491950960994581
lhand -27.82980892392804 25.930767963894237
lfingers 7.125019999999996
lthumb -1.2449599995847036 55.93723311832012
rfemur -30.85028293412667 6.011628834265867 20.915287591250614
rtibia 22.802192201346067
rfoot -9.313280828564766 -11.040416565648702
rtoes -1.1468527672787616
lfemur 13.292532238434582 -3.567961300315193 -28.015354098064094
ltibia 20.873699511162876
lfoot -11.698165923477648 -5.151376521216628
ltoes -6.298328048461329
139
root 0 0 0 -1.6254828628664733 0.9266580497808414 -0.3610775786675502
lowerback 9.664193371970144 -1.6673895998106043 -2.1597013427575122
upperback -9.139074072216646E-4 -2.319916643572701 2.324381270110759
thorax -5.2639256677368245 -1.079622905753931 3.9718796239441327
lowerneck -18.53956975618702 -2.2336376255820314 -2.0103875806326426
upperneck 21.7830971563512 -2.632116095836433 -0.44889898322502986
head 10.019345119706951 -1.342362754143813 -0.1978332753579954
rclavicle -1.255839154948442E-15 -3.2465496482279566E-16
rhumerus -35.904012603129964 -24.50820725975262 -77.26609342009223
rradius 18.360997688137928
rwrist 7.673022914127238
rhand -17.92615342954669 25.223102584275146
rfingers 7.125020000000022
rthumb 8.337695488159966 -4.58976203863503
lclavicle -2.70195846165475E-15 -1.0100651733830747E-15
lhumerus -27.578682227290173 -2.962540968794209 80.85620192733961
lradius 31.377605106173835
lwrist 7.43433242490949
lhand -27.769725814009195 25.842040479606077
lfingers 7.125019999999999
lthumb -1.1836409640361634 55.84271631607591
rfemur -22.569545744770046 6.526045515055477 22.787003989013094
rtibia 20.518806180184743
rfoot -9.018747013773362 -7.512947576297218
rtoes 3.9146600258526045
lfemur 15.363607307674513 -3.487032973877329 -26.81097092445785
ltibia 28.44371456075267
lfoot -5.559980450332322 -9.694699525170087
ltoes -8.852875382956594
140
root 0 0 0 -2.168385847330419 0.49600987890409876 -1.3916436149201503
lowerback 9.472726599515472 -1.6072524039932512 -1.1577262850456433
upperback -0.11296224184837625 -2.1208559710558683 2.4638703505915394
thorax -5.334673370028874 -1.0011591413478127 3.5377649106278954
lowerneck -18.012001672452527 -2.095289476011293 -1.743108305462144
upperneck 21.89271341678823 -2.4541012077481 -0.6327983578068725
head 9.93776799907494 -1.26477409263753 -0.2715580102308868
rclavicle -1.5017072417918492E-15 -1.1939813260472674E-15
rhumerus -36.05889567793618 -24.655946065622523 -77.2623834432195
rradius 17.99872695790385
rwrist 8.223835408170835
rhand -17.85219725637918 25.3211581553363
rfingers 7.1250200000000214
rthumb 8.40932513096907 -4.481211333480658
lclavicle -3.64739085248163E-15 -2.028739760774462E-15
lhumerus -28.77573463599593 -2.4290623564869662 81.54067142485994
lradius 30.657234475843683
lwrist 7.234616746652341
lhand -27.636888460179193 25.639232584401256
lfingers 7.125020000000007
lthumb -1.0484023225804995 55.63060446090963
rfemur -19.89225735219526 6.615293357925923 24.260433119017975
rtibia 21.992203164393676
rfoot -9.30293638582286 -5.696118704091609
rtoes 7.441406414235537
lfemur 8.592272476322314 -1.9240637244439793 -22.360623345455572
ltibia 51.174827413425234
lfoot 11.239626070293184 -19.236387749116055
ltoes -1.3532919787851938
141
root 0 0 0 -3.4169948475101353 -0.790920267330691 -4.117943778608327
lowerback 11.346730988383895 -1.1887275312597296 1.3191879600675498
upperback 0.7847783398196515 -1.2385620678279816 2.973226828624857
thorax -5.524044339168494 -0.6140377365393095 2.5605568251290505
lowerneck -16.531750032224448 -2.4919990923477857 -1.6851566338764838
upperneck 17.71200009558451 -2.856980968259995 -0.3922350330696893
head 8.209642638709768 -1.527209016495521 -0.21028212071403196
rclavicle -1.015174234297229E-15 -4.0720996233571405E-15
rhumerus -35.33012478583449 -23.921775847020832 -77.65935103783143
rradius 18.23164894845536
rwrist 8.36610195087431
rhand -17.80583002981448 25.789101061273243
rfingers 7.1250200000000214
rthumb 8.453050557028948 -4.007744215498654
lclavicle -3.508023134585149E-15 -5.395570380229967E-15
lhumerus -29.65616804719627 -2.0165218262082725 82.94922910811016
lradius 29.536698508650503
lwrist 6.740279153626258
lhand -27.56420856239697 25.021618298584368
lfingers 7.125020000000017
lthumb -0.9719416007192638 55.00910066359317
rfemur -18.8973760672762 6.852836237184576 26.17822579889745
rtibia 25.1897440105475
rfoot -9.472009909114423 -5.644352751443847
rtoes 9.761202020917201
lfemur -8.453914596564863 1.1465030972508714 -14.367146352451572
ltibia 63.81702736436052
lfoot 13.998436221507152 -18.676611579646
ltoes -6.525148023109541
142
root 0 0 0 -3.8383405966551907 -2.0558260220864417 -5.138267564430485
lowerback 11.751752338730707 -0.5365549474717616 2.459813322108527
upperback 0.6577993866597783 -0.22094003997106348 3.017331877739526
thorax -5.910157620783488 -0.13336867160822163 1.8107021115773998
lowerneck -15.885595994890041 -2.6977892168817204 -1.5225600958906742
upperneck 18.93543877640348 -3.219414927086045 -0.19338568240499576
head 8.62832186347525 -1.6685984393315194 -0.22014297632642116
rclavicle -1.4378587540841205E-15 -5.348623057194841E-15
rhumerus -34.44988065156314 -23.021160657762938 -78.05347235313423
rradius 18.633456863811247
rwrist 8.345047831875146
rhand -17.75889351602978 26.23636047955715
rfingers 7.1250200000000214
rthumb 8.497931838920671 -3.5542574671263907
lclavicle -3.7674439089899074E-15 -6.576596129906463E-15
lhumerus -30.499915300259858 -1.291876759670692 83.56409707541152
lradius 28.52829892291193
lwrist 6.476485498370174
lhand -27.669254251059094 24.615510330772032
lfingers 7.125020000000023
lthumb -1.0726807550409543 54.60134770937525
rfemur -14.425615052652686 7.512475091758816 29.093471073431424
rtibia 25.972693369176344
rfoot -12.060019723461362 -5.8197584586382245
rtoes 10.608741509957973
lfemur -17.796319314251626 3.5691368427345616 -11.769569498017098
ltibia 71.06929266861641
lfoot 8.35274263105742 -14.73118768094719
ltoes -9.664387537810615
143
root 0 0 0 -3.9309093122809213 -3.676922836927801 -5.945936028555966
lowerback 11.747598926133461 0.4145459851692251 3.7206665073535685
upperback 0.24463297988729016 1.1946556198315046 2.7273167086484618
thorax -6.3190655243957 0.5264731146445237 0.5770487490633199
lowerneck -15.876650690043597 -2.8838084301898923 -1.1146939030093581
upperneck 19.80114692255665 -3.645288087215914 0.029606068389906204
head 9.003153399965054 -1.7957758816119134 -0.2679617209427149
rclavicle -4.5079140003144246E-15 -2.7213106262626633E-15
rhumerus -33.67387574644717 -21.73892517557484 -78.67580242390135
rradius 19.668955988121702
rwrist 7.65730765217623
rhand -17.83906475441907 26.265617399882053
rfingers 7.125020000000019
rthumb 8.422185864290352 -3.530080140792549
lclavicle -6.5538577518892374E-15 -3.633150412597654E-15
lhumerus -31.62723300064066 -0.4546602534522576 83.99025188283679
lradius 27.529521143692705
lwrist 6.313312062287074
lhand -27.667225489331038 24.588828899307405
lfingers 7.125020000000028
lthumb -1.0707523706162876 54.57584123304123
rfemur -6.681900257234139 8.386298321431708 33.94713739107377
rtibia 25.804767057522923
rfoot -18.945857434354387 -6.063240106632769
rtoes 10.694822442129713
lfemur -22.759503330678886 4.580500504119003 -11.919363307342365
ltibia 71.60181703231603
lfoot 3.899876469555 -11.27959731204674
ltoes -7.844102180500354
144
root 0 0 0 -2.9735356469081347 -4.7354876597284985 -6.863348114542749
lowerback 10.269174930635144 1.2175647598124346 5.341824787439851
upperback -0.25136766385505954 2.4242616756326516 2.4605703133204475
thorax -5.924931632334501 1.0880442640467591 -0.7867220867863672
lowerneck -17.428452921979442 -3.012459117714329 -1.3339947366269465
upperneck 21.69140837819879 -3.9463526274279115 0.24028852206027707
head 9.839583992271479 -1.8671552064745724 -0.22961154072669293
rclavicle -6.9703597743353665E-15 1.380021761874943E-15
rhumerus -32.639213261724926 -19.923930345757356 -79.41057099835419
rradius 21.59402196151796
rwrist 5.98382373805769
rhand -18.096916072002877 26.058919968967004
rfingers 7.125020000000018
rthumb 8.175402168468786 -3.748112964279997
lclavicle -8.589436261599565E-15 5.639275073596781E-16
lhumerus -32.48415314178091 -0.08873936908357408 84.22224593222326
lradius 27.060146796701375
lwrist 6.262379710700361
lhand -27.57125642785524 24.710397670752783
lfingers 7.125020000000028
lthumb -0.9749261370322682 54.698247604108005
rfemur -5.059404175479461 8.350445705597044 34.725658141630355
rtibia 25.30083149702404
rfoot -21.586421173245128 -6.31561814325029
rtoes 10.208673940609131
lfemur -26.71170553342029 4.547797638123776 -12.527885306589734
ltibia 63.93884820592587
lfoot -0.9475145170184653 -6.861810649562267
ltoes -4.146130089404814
